<svg width="228" height="84" viewBox="0 0 228 84" fill="none" xmlns="http://www.w3.org/2000/svg">
<path d="M15.5455 71H2.64205V36.0909H15.5284C19.0852 36.0909 22.1477 36.7898 24.7159 38.1875C27.2955 39.5739 29.2841 41.5739 30.6818 44.1875C32.0795 46.7898 32.7784 49.9034 32.7784 53.5284C32.7784 57.1648 32.0795 60.2898 30.6818 62.9034C29.2955 65.517 27.3125 67.5227 24.733 68.9205C22.1534 70.3068 19.0909 71 15.5455 71ZM11.0795 63.8068H15.2216C17.1761 63.8068 18.8295 63.4773 20.1818 62.8182C21.5455 62.1477 22.5739 61.0625 23.267 59.5625C23.9716 58.0511 24.3239 56.0398 24.3239 53.5284C24.3239 51.017 23.9716 49.017 23.267 47.5284C22.5625 46.0284 21.5227 44.9489 20.1477 44.2898C18.7841 43.6193 17.1023 43.2841 15.1023 43.2841H11.0795V63.8068ZM45.0852 71.4432C43.4148 71.4432 41.9318 71.1648 40.6364 70.608C39.3523 70.0398 38.3352 69.1875 37.5852 68.0511C36.8466 66.9034 36.4773 65.4659 36.4773 63.7386C36.4773 62.2841 36.733 61.0568 37.2443 60.0568C37.7557 59.0568 38.4602 58.2443 39.358 57.6193C40.2557 56.9943 41.2898 56.5227 42.4602 56.2045C43.6307 55.875 44.8807 55.6534 46.2102 55.5398C47.6989 55.4034 48.8977 55.2614 49.8068 55.1136C50.7159 54.9545 51.375 54.733 51.7841 54.4489C52.2045 54.1534 52.4148 53.7386 52.4148 53.2045V53.1193C52.4148 52.2443 52.1136 51.5682 51.5114 51.0909C50.9091 50.6136 50.0966 50.375 49.0739 50.375C47.9716 50.375 47.0852 50.6136 46.4148 51.0909C45.7443 51.5682 45.3182 52.2273 45.1364 53.0682L37.4489 52.7955C37.6761 51.2045 38.2614 49.7841 39.2045 48.5341C40.1591 47.2727 41.4659 46.2841 43.125 45.5682C44.7955 44.8409 46.8011 44.4773 49.142 44.4773C50.8125 44.4773 52.3523 44.6761 53.7614 45.0739C55.1705 45.4602 56.3977 46.0284 57.4432 46.7784C58.4886 47.517 59.2955 48.4261 59.8636 49.5057C60.4432 50.5852 60.733 51.8182 60.733 53.2045V71H52.892V67.3523H52.6875C52.2216 68.2386 51.625 68.9886 50.8977 69.6023C50.1818 70.2159 49.3352 70.6761 48.358 70.983C47.392 71.2898 46.3011 71.4432 45.0852 71.4432ZM47.6591 65.9886C48.5568 65.9886 49.3636 65.8068 50.0795 65.4432C50.8068 65.0795 51.3864 64.5795 51.8182 63.9432C52.25 63.2955 52.4659 62.5455 52.4659 61.6932V59.2045C52.2273 59.3295 51.9375 59.4432 51.5966 59.5455C51.267 59.6477 50.9034 59.7443 50.5057 59.8352C50.108 59.9261 49.6989 60.0057 49.2784 60.0739C48.858 60.142 48.4545 60.2045 48.0682 60.2614C47.2841 60.3864 46.6136 60.5795 46.0568 60.8409C45.5114 61.1023 45.0909 61.4432 44.7955 61.8636C44.5114 62.2727 44.3693 62.7614 44.3693 63.3295C44.3693 64.1932 44.6761 64.8523 45.2898 65.3068C45.9148 65.7614 46.7045 65.9886 47.6591 65.9886ZM69.9886 80.8182C68.9886 80.8182 68.0455 80.7386 67.1591 80.5795C66.2727 80.4318 65.5114 80.233 64.875 79.983L66.7159 73.9318C67.5341 74.2045 68.2727 74.3636 68.9318 74.4091C69.6023 74.4545 70.1761 74.3466 70.6534 74.0852C71.142 73.8352 71.517 73.3864 71.7784 72.7386L72.1023 71.9545L62.7955 44.8182H71.5227L76.3466 63.5H76.6193L81.5114 44.8182H90.2898L80.4205 73.5057C79.9432 74.9375 79.267 76.1989 78.392 77.2898C77.5284 78.392 76.4091 79.2557 75.0341 79.8807C73.6705 80.5057 71.9886 80.8182 69.9886 80.8182ZM116.702 71H103.798V36.0909H116.685C120.241 36.0909 123.304 36.7898 125.872 38.1875C128.452 39.5739 130.44 41.5739 131.838 44.1875C133.236 46.7898 133.935 49.9034 133.935 53.5284C133.935 57.1648 133.236 60.2898 131.838 62.9034C130.452 65.517 128.469 67.5227 125.889 68.9205C123.31 70.3068 120.247 71 116.702 71ZM112.236 63.8068H116.378C118.332 63.8068 119.986 63.4773 121.338 62.8182C122.702 62.1477 123.73 61.0625 124.423 59.5625C125.128 58.0511 125.48 56.0398 125.48 53.5284C125.48 51.017 125.128 49.017 124.423 47.5284C123.719 46.0284 122.679 44.9489 121.304 44.2898C119.94 43.6193 118.259 43.2841 116.259 43.2841H112.236V63.8068ZM138.861 71V44.8182H147.196V71H138.861ZM143.037 41.767C141.866 41.767 140.861 41.3807 140.02 40.608C139.179 39.8239 138.759 38.8807 138.759 37.7784C138.759 36.6875 139.179 35.7557 140.02 34.983C140.861 34.1989 141.866 33.8068 143.037 33.8068C144.219 33.8068 145.224 34.1989 146.054 34.983C146.895 35.7557 147.315 36.6875 147.315 37.7784C147.315 38.8807 146.895 39.8239 146.054 40.608C145.224 41.3807 144.219 41.767 143.037 41.767ZM159.882 71.4432C158.212 71.4432 156.729 71.1648 155.433 70.608C154.149 70.0398 153.132 69.1875 152.382 68.0511C151.643 66.9034 151.274 65.4659 151.274 63.7386C151.274 62.2841 151.53 61.0568 152.041 60.0568C152.553 59.0568 153.257 58.2443 154.155 57.6193C155.053 56.9943 156.087 56.5227 157.257 56.2045C158.428 55.875 159.678 55.6534 161.007 55.5398C162.496 55.4034 163.695 55.2614 164.604 55.1136C165.513 54.9545 166.172 54.733 166.581 54.4489C167.001 54.1534 167.212 53.7386 167.212 53.2045V53.1193C167.212 52.2443 166.911 51.5682 166.308 51.0909C165.706 50.6136 164.893 50.375 163.871 50.375C162.768 50.375 161.882 50.6136 161.212 51.0909C160.541 51.5682 160.115 52.2273 159.933 53.0682L152.246 52.7955C152.473 51.2045 153.058 49.7841 154.001 48.5341C154.956 47.2727 156.263 46.2841 157.922 45.5682C159.592 44.8409 161.598 44.4773 163.939 44.4773C165.609 44.4773 167.149 44.6761 168.558 45.0739C169.967 45.4602 171.195 46.0284 172.24 46.7784C173.286 47.517 174.092 48.4261 174.661 49.5057C175.24 50.5852 175.53 51.8182 175.53 53.2045V71H167.689V67.3523H167.484C167.018 68.2386 166.422 68.9886 165.695 69.6023C164.979 70.2159 164.132 70.6761 163.155 70.983C162.189 71.2898 161.098 71.4432 159.882 71.4432ZM162.456 65.9886C163.354 65.9886 164.161 65.8068 164.876 65.4432C165.604 65.0795 166.183 64.5795 166.615 63.9432C167.047 63.2955 167.263 62.5455 167.263 61.6932V59.2045C167.024 59.3295 166.734 59.4432 166.393 59.5455C166.064 59.6477 165.7 59.7443 165.303 59.8352C164.905 59.9261 164.496 60.0057 164.075 60.0739C163.655 60.142 163.251 60.2045 162.865 60.2614C162.081 60.3864 161.411 60.5795 160.854 60.8409C160.308 61.1023 159.888 61.4432 159.592 61.8636C159.308 62.2727 159.166 62.7614 159.166 63.3295C159.166 64.1932 159.473 64.8523 160.087 65.3068C160.712 65.7614 161.501 65.9886 162.456 65.9886ZM180.626 71V44.8182H188.723V49.5909H188.996C189.473 47.8636 190.251 46.5795 191.331 45.7386C192.411 44.8864 193.666 44.4602 195.098 44.4602C195.484 44.4602 195.882 44.4886 196.291 44.5455C196.7 44.5909 197.081 44.6648 197.433 44.767V52.0114C197.036 51.875 196.513 51.767 195.865 51.6875C195.229 51.608 194.661 51.5682 194.161 51.5682C193.172 51.5682 192.28 51.7898 191.484 52.233C190.7 52.6648 190.081 53.2727 189.626 54.0568C189.183 54.8295 188.962 55.7386 188.962 56.7841V71H180.626ZM206.723 80.8182C205.723 80.8182 204.78 80.7386 203.893 80.5795C203.007 80.4318 202.246 80.233 201.609 79.983L203.45 73.9318C204.268 74.2045 205.007 74.3636 205.666 74.4091C206.337 74.4545 206.911 74.3466 207.388 74.0852C207.876 73.8352 208.251 73.3864 208.513 72.7386L208.837 71.9545L199.53 44.8182H208.257L213.081 63.5H213.354L218.246 44.8182H227.024L217.155 73.5057C216.678 74.9375 216.001 76.1989 215.126 77.2898C214.263 78.392 213.143 79.2557 211.768 79.8807C210.405 80.5057 208.723 80.8182 206.723 80.8182Z" fill="white"/>
<rect x="0.5" y="0.5" width="15" height="15" rx="3.5" fill="#18181B" stroke="#27272A"/>
<rect x="20.5" y="0.5" width="15" height="15" rx="3.5" fill="#14532D" stroke="#15803D"/>
<rect x="40.5" y="0.5" width="15" height="15" rx="3.5" fill="#166534" stroke="#16A34A"/>
<rect x="60.5" y="0.5" width="15" height="15" rx="3.5" fill="#15803D" stroke="#22C55E"/>
<rect x="80.5" y="0.5" width="15" height="15" rx="3.5" fill="#16A34A" stroke="#4ADE80"/>
<rect x="100.5" y="0.5" width="15" height="15" rx="3.5" fill="#22C55E" stroke="#86EFAC"/>
</svg>
